HIERARCHY
ROOT Hips
{
	OFFSET 0.000000 0.000000 0.000000 
	CHANNELS 6 Xposition Yposition Zposition Zrotation Yrotation Xrotation
	JOINT LeftUpLeg
	{
		OFFSET 1.363060 -1.794630 0.839290 
		CHANNELS 3 Zrotation Yrotation Xrotation
		JOINT LeftLeg
		{
			OFFSET 2.448110 -6.726130 0.000000 
			CHANNELS 3 Zrotation Yrotation Xrotation
			JOINT LeftFoot
			{
				OFFSET 2.562200 -7.039590 0.000000 
				CHANNELS 3 Zrotation Yrotation Xrotation
				JOINT LeftToeBase
				{
					OFFSET 0.157640 -0.433110 2.322550 
					CHANNELS 3 Zrotation Yrotation Xrotation
					End Site
					{
						OFFSET 0.000000 0.000000 0.000000 
					}
				}
			}
		}
	}
	JOINT RightUpLeg
	{
		OFFSET -1.305520 -1.794630 0.839290 
		CHANNELS 3 Zrotation Yrotation Xrotation
		JOINT RightLeg
		{
			OFFSET -2.542530 -6.985550 0.000000 
			CHANNELS 3 Zrotation Yrotation Xrotation
			JOINT RightFoot
			{
				OFFSET -2.568260 -7.056230 0.000000 
				CHANNELS 3 Zrotation Yrotation Xrotation
				JOINT RightToeBase
				{
					OFFSET -0.164730 -0.452590 2.363150 
					CHANNELS 3 Zrotation Yrotation Xrotation
					End Site
					{
						OFFSET 0.000000 0.000000 0.000000 
					}
				}
			}
		}
	}
	JOINT Spine
	{
		OFFSET 0.028270 2.035590 -0.193380 
		CHANNELS 3 Zrotation Yrotation Xrotation
		JOINT Spine1
		{
			OFFSET 0.056720 2.048850 -0.042750 
			CHANNELS 3 Zrotation Yrotation Xrotation
			JOINT Neck1
			{
				OFFSET -0.054170 1.746240 0.172020 
				CHANNELS 3 Zrotation Yrotation Xrotation
				JOINT Head
				{
					OFFSET 0.104070 1.761360 -0.123970 
					CHANNELS 3 Zrotation Yrotation Xrotation
					End Site
					{
						OFFSET 0.000000 0.000000 0.000000 
					}
				}
			}
			JOINT LeftArm
			{
				OFFSET 3.362410 1.200890 -0.311210 
				CHANNELS 3 Zrotation Yrotation Xrotation
				JOINT LeftForeArm
				{
					OFFSET 4.983000 -0.000000 -0.000000 
					CHANNELS 3 Zrotation Yrotation Xrotation
					JOINT LeftHand
					{
						OFFSET 3.483560 -0.000000 -0.000000 
						CHANNELS 3 Zrotation Yrotation Xrotation
						JOINT LeftHandIndex1
						{
							OFFSET 0.715260 -0.000000 -0.000000 
							CHANNELS 3 Zrotation Yrotation Xrotation
							End Site
							{
								OFFSET 0.000000 0.000000 0.000000 
							}
						}
					}
				}
			}
			JOINT RightArm
			{
				OFFSET -3.136600 1.374050 -0.404650 
				CHANNELS 3 Zrotation Yrotation Xrotation
				JOINT RightForeArm
				{
					OFFSET -5.241900 -0.000000 -0.000000 
					CHANNELS 3 Zrotation Yrotation Xrotation
					JOINT RightHand
					{
						OFFSET -3.444170 -0.000000 -0.000000 
						CHANNELS 3 Zrotation Yrotation Xrotation
						JOINT RightHandIndex1
						{
							OFFSET -0.622530 -0.000000 -0.000000 
							CHANNELS 3 Zrotation Yrotation Xrotation
							End Site
							{
								OFFSET 0.000000 0.000000 0.000000 
							}
						}
					}
				}
			}
		}
	}
}
MOTION
Frames: 18
Frame Time: 0.041667
2.672500 5.059100 -4.269100 54.981100 79.377500 15.531200 13.393200 54.891900 -82.861300 36.323800 11.716600 145.263200 -13.350500 -56.050200 1.049500 0.368600 3.899800 10.795000 18.389200 -8.262300 -86.773000 -20.679600 -19.988900 91.987500 -0.154600 -1.483700 -8.126800 -0.008800 -0.605200 1.663200 -2.714800 2.260800 13.229900 0.579000 1.610900 -2.327100 0.408900 -0.122600 33.010200 -0.582000 1.011100 12.100800 -71.745300 -3.093700 13.653100 0.669400 -1.159300 -0.006800 0.000000 0.000000 -10.644000 -7.125000 0.000000 0.000000 93.073600 -8.440900 16.859800 -6.372300 10.881700 -0.607600 0.000000 0.000000 -28.492000 7.125000 0.000000 0.000000 
2.682200 5.077500 -4.240800 57.074100 79.019900 17.295700 13.607000 54.212800 -81.572900 36.261600 11.803900 144.958300 -12.826600 -55.700500 -0.128600 0.289900 3.462700 9.569800 17.836000 -8.168900 -86.517300 -20.812700 -19.984200 92.376700 -0.159800 -1.326400 -8.158500 -0.009700 -0.635900 1.747400 -2.885100 2.294300 13.393500 0.531200 1.636800 -2.224200 0.167000 -0.984800 32.933800 -0.773800 0.576900 12.146600 -71.214100 -4.000500 13.737200 0.534900 -0.926400 -0.004300 0.000000 0.000000 -10.206600 -7.125000 0.000000 0.000000 93.259100 -8.190000 17.507000 -6.463600 11.033200 -0.624900 0.000000 0.000000 -29.214900 7.125000 0.000000 0.000000 
2.701800 5.091000 -4.213400 57.715800 78.969000 17.921800 13.912600 53.678800 -81.087700 36.239900 11.834100 144.852400 -12.722000 -55.605400 -0.298900 0.278900 3.396800 9.385400 17.697500 -8.108500 -86.653800 -20.961700 -19.977800 92.812700 -0.159800 -1.196500 -8.086900 -0.001300 -0.234000 0.642800 -2.902600 2.186200 13.422900 0.552200 1.579300 -2.131300 0.465000 -0.465900 33.520200 -0.627700 0.898800 12.456300 -70.826600 -4.433100 13.744200 0.505800 -0.876100 -0.003900 0.000000 0.000000 -9.439600 -7.125000 0.000000 0.000000 93.265900 -8.078000 17.840300 -6.370400 10.878500 -0.607200 0.000000 0.000000 -29.428300 7.125000 0.000000 0.000000 
2.722000 5.103400 -4.187700 56.748500 79.062600 17.097800 14.565800 53.502800 -80.874100 36.233100 11.843600 144.819000 -12.948900 -55.845300 -0.025100 0.279300 3.398800 9.391200 17.862000 -7.993200 -86.899200 -21.116700 -19.970100 93.266600 -0.166600 -0.900300 -8.093100 -0.000500 -0.149500 0.410700 -2.881500 2.144300 13.507500 0.375000 1.567200 -1.947400 0.448800 -0.693100 33.690400 -0.688700 0.819900 12.581600 -70.363800 -5.068400 13.881500 0.509100 -0.881700 -0.003900 0.000000 0.000000 -8.423800 -7.125000 0.000000 0.000000 93.421500 -7.777800 17.587400 -6.235900 10.655100 -0.582100 0.000000 0.000000 -29.108400 7.125000 0.000000 0.000000 
2.743700 5.117200 -4.164100 56.889000 78.911500 17.179100 15.294200 53.518900 -79.999800 36.212100 11.872700 144.717000 -13.276800 -56.142400 0.487200 0.318300 3.626600 10.028400 17.691300 -7.831100 -86.876500 -21.270300 -19.961300 93.716400 -0.178100 -0.541000 -8.186500 -0.001000 -0.204100 0.560600 -2.286600 1.762500 12.893800 1.549800 1.297800 -2.588100 0.172700 -0.061900 33.755300 -0.545000 0.974000 12.227600 -71.299700 -3.671300 13.310200 0.720900 -1.248500 -0.007900 0.000000 0.000000 -7.183500 -7.125000 0.000000 0.000000 92.008000 -9.371700 19.914700 -6.439600 10.993300 -0.620300 0.000000 0.000000 -30.010500 7.125000 0.000000 0.000000 
2.764400 5.132600 -4.142300 59.758900 78.565200 19.815800 15.304500 53.155300 -78.839400 36.162900 11.940400 144.478500 -13.458600 -56.071000 1.437400 0.416300 4.141600 11.475300 16.919700 -7.785300 -86.810900 -21.448700 -19.949600 94.239000 -0.188900 -0.168800 -8.271900 -0.000400 -0.132300 0.363600 -2.704100 1.940200 13.201900 1.034600 1.418200 -2.256900 0.178400 -1.602900 33.491500 -0.739900 0.263800 12.263400 -70.194100 -4.919300 13.887400 0.825000 -1.428600 -0.010300 0.000000 0.000000 -5.901000 -7.125000 0.000000 0.000000 92.875500 -8.633500 18.122400 -6.283000 10.733400 -0.590800 0.000000 0.000000 -28.655600 7.125000 0.000000 0.000000 
2.778600 5.149000 -4.122400 61.788900 78.261200 21.634900 15.351000 52.755400 -77.860300 36.109300 12.013500 144.220200 -13.511000 -55.970300 1.951300 0.427500 4.196000 11.628700 16.259900 -7.705900 -86.808400 -21.647800 -19.934800 94.822800 -0.198300 0.236800 -8.329200 -0.001200 0.220000 -0.604500 -2.682000 1.839900 13.210600 1.332100 1.350900 -2.255300 0.019000 -0.654300 34.039200 -0.771500 0.757700 12.550200 -69.855000 -4.941200 13.814600 1.237200 -2.141700 -0.023100 0.000000 0.000000 -4.909500 -7.125000 0.000000 0.000000 92.706600 -8.462500 17.327800 -6.085900 10.405400 -0.554700 0.000000 0.000000 -27.649900 7.125000 0.000000 0.000000 
2.791300 5.167300 -4.105200 61.645700 78.045900 21.395100 16.010700 52.694900 -76.987000 36.074300 12.060900 144.052200 -13.628300 -56.097400 2.069200 0.370400 3.909000 10.820900 16.041500 -7.499800 -86.900300 -21.861400 -19.916700 95.449500 -0.196700 0.470800 -8.223000 -0.013900 0.760000 -2.088800 -2.596100 1.785600 13.287300 1.448400 1.310800 -2.093300 -0.000400 -0.129900 34.318100 -0.720600 1.009300 12.679700 -69.519000 -5.082200 13.726400 1.627300 -2.815900 -0.040000 0.000000 0.000000 -4.339500 -7.125000 0.000000 0.000000 92.518800 -8.474000 17.374000 -6.081700 10.398300 -0.553900 0.000000 0.000000 -27.684500 7.125000 0.000000 0.000000 
2.804300 5.189100 -4.090700 61.642400 77.778300 21.230100 16.718700 52.781100 -75.900200 36.032700 12.116800 143.853700 -13.786100 -56.304700 2.113900 0.337800 3.735000 10.332200 15.781700 -7.352800 -86.896000 -22.079800 -19.896000 96.091100 -0.206100 0.773400 -8.335400 -0.003400 0.377700 -1.037900 -2.590200 1.847400 13.384000 1.366300 1.345300 -1.971300 0.033300 -0.289800 34.590200 -0.714600 0.945200 12.837700 -68.991100 -5.621300 13.898000 1.896500 -3.280600 -0.054300 0.000000 0.000000 -4.017100 -7.125000 0.000000 0.000000 92.580600 -8.608200 17.527000 -6.234800 10.653200 -0.581900 0.000000 0.000000 -28.213800 7.125000 0.000000 0.000000 
2.819600 5.210000 -4.079000 61.981300 77.439300 21.327400 17.403200 52.941800 -74.651300 35.990900 12.172500 143.655100 -13.818000 -56.577100 1.445800 0.262700 3.297400 9.107900 15.381700 -7.220300 -86.752900 -22.296000 -19.873100 96.726800 -0.233200 1.289100 -8.760000 -0.003300 -0.372400 1.023200 -2.475800 1.849600 13.354300 1.546300 1.339800 -2.077600 -0.600400 -0.880500 34.293000 -0.992800 0.554700 12.676800 -68.600100 -5.857200 13.931400 2.288000 -3.955600 -0.079000 0.000000 0.000000 -3.809000 -7.125000 0.000000 0.000000 92.351800 -8.764200 17.598900 -6.235200 10.653900 -0.582000 0.000000 0.000000 -28.306000 7.125000 0.000000 0.000000 
2.831400 5.234000 -4.067800 62.031800 77.099100 21.219500 18.027300 53.052200 -73.538700 35.945800 12.232200 143.441600 -13.758100 -56.779300 0.629500 0.204400 2.911200 8.031700 15.071500 -7.025000 -86.796100 -22.523300 -19.846700 97.395800 -0.245200 1.450100 -8.957000 -0.006200 -0.509200 1.399200 -2.366400 1.909900 13.351300 1.636900 1.366600 -2.126700 -0.616600 -1.040600 34.520300 -0.972300 0.454600 12.817800 -68.044800 -6.118900 14.076100 2.795200 -4.828000 -0.117900 0.000000 0.000000 -3.663600 -7.125000 0.000000 0.000000 92.250700 -8.624700 16.364400 -5.986700 10.239900 -0.536900 0.000000 0.000000 -27.064600 7.125000 0.000000 0.000000 
2.843300 5.259400 -4.058400 62.560200 76.800800 21.616400 18.290200 52.858200 -72.590700 35.893100 12.301300 143.193600 -13.781700 -56.727900 0.867700 0.249100 3.211400 8.867800 14.765900 -6.964300 -87.002600 -22.778500 -19.813900 98.148000 -0.250800 1.346000 -9.082100 -0.005400 -0.474400 1.303600 -2.407500 1.999200 13.375800 1.469100 1.425400 -2.149500 -0.629500 -0.491700 34.898400 -1.002100 0.786600 13.031400 -67.228400 -5.950900 14.490700 4.014200 -6.913400 -0.242600 0.000000 0.000000 -3.615300 -7.125000 0.000000 0.000000 92.549900 -8.418100 13.986500 -5.733200 9.816400 -0.492700 0.000000 0.000000 -24.955500 7.125000 0.000000 0.000000 
2.859600 5.282700 -4.052600 63.227500 76.580500 22.131400 18.463400 52.595000 -71.723400 35.847300 12.360900 142.979000 -13.972500 -56.539300 2.187900 0.375300 3.934600 10.892800 14.486800 -7.030000 -87.176500 -23.045100 -19.776200 98.935300 -0.265000 1.269700 -9.359900 -0.000100 0.077900 -0.214100 -2.389700 1.958900 13.354200 1.443000 1.413500 -2.236700 -0.769800 -0.292500 35.119700 -1.038300 0.871900 13.165700 -66.394300 -5.678000 14.714900 5.212100 -8.941800 -0.407800 0.000000 0.000000 -3.643800 -7.125000 0.000000 0.000000 92.620500 -8.405300 12.476300 -5.611300 9.612300 -0.472200 0.000000 0.000000 -23.427100 7.125000 0.000000 0.000000 
2.874500 5.308800 -4.048000 62.968300 76.439300 21.822000 18.918200 52.557900 -71.058600 35.817900 12.398800 142.842100 -14.253700 -56.479400 3.547200 0.480400 4.444900 12.331800 14.449100 -7.028300 -87.421000 -23.305700 -19.736000 99.706300 -0.281200 1.045200 -9.703000 -0.016900 0.838800 -2.305400 -2.264000 1.932900 13.351900 1.439900 1.406300 -2.284000 -1.078700 -0.505100 35.219400 -1.173000 0.726900 13.257100 -65.529700 -5.455400 22.422400 6.448100 -11.007400 -0.622000 0.000000 0.000000 -11.064600 -7.125000 0.000000 0.000000 92.515300 -8.321200 11.001000 -5.476100 9.385600 -0.449900 0.000000 0.000000 -21.866600 7.125000 0.000000 0.000000 
2.890000 5.334400 -4.045200 62.794900 76.191000 21.683800 19.266600 52.502900 -70.473000 35.798000 12.424500 142.749500 -14.324100 -56.551200 3.620400 0.429000 4.203400 11.649600 14.293600 -6.942500 -87.764500 -23.586900 -19.688700 100.540000 -0.298500 0.988100 -10.019200 -0.009300 0.622000 -1.709200 -2.234900 1.939700 13.283400 1.297600 1.420200 -2.376000 -1.312900 -1.134700 35.272200 -1.289900 0.373300 13.297600 -64.441600 -5.303400 28.488100 7.685200 -13.041300 -0.879700 0.000000 0.000000 -16.548000 -7.125000 0.000000 0.000000 92.561100 -8.239200 8.601400 -5.255900 9.015700 -0.414700 0.000000 0.000000 -19.571200 7.125000 0.000000 0.000000 
2.874200 5.305300 -4.017600 65.341800 76.776500 23.902000 17.819800 48.732900 -71.716200 35.775100 12.453800 142.643100 -13.156000 -54.803000 3.969100 0.258200 3.269300 9.029300 13.826400 -7.660000 -88.168800 -23.955300 -19.620700 101.635200 -0.329600 0.994200 -10.540600 0.000000 0.027300 -0.074900 -2.163700 1.665000 13.224400 1.398300 1.318700 -2.831100 -1.656500 -0.272700 35.444900 -1.502000 0.858800 13.449000 -63.034900 -5.882100 32.972800 8.770500 -14.794000 -1.140800 0.000000 0.000000 -20.225000 -7.125000 0.000000 0.000000 92.908400 -7.675900 6.653700 -4.971300 8.536000 -0.371200 0.000000 0.000000 -17.943200 7.125000 0.000000 0.000000 
2.850100 5.258900 -3.982800 68.845300 77.755700 26.814300 16.492600 43.848400 -73.039100 35.758900 12.474500 142.568100 -11.985100 -52.504800 5.721100 0.284100 3.428200 9.473400 13.373700 -8.831400 -88.376600 -24.325100 -19.545500 102.738300 -0.369400 1.049900 -11.161700 -0.004700 -0.443100 1.217500 -1.780600 1.181800 12.988800 1.999600 1.110500 -3.554300 -1.949600 -0.213100 35.448800 -1.632100 0.858400 13.497200 -62.003700 -6.393000 35.883500 9.766600 -16.373700 -1.408500 0.000000 0.000000 -22.570200 -7.125000 0.000000 0.000000 92.796400 -7.224200 5.001600 -4.749700 8.161600 -0.339100 0.000000 0.000000 -16.312600 7.125000 0.000000 0.000000 
2.873200 5.297300 -3.985700 67.699400 77.300600 25.836600 17.149000 44.731200 -72.178500 35.742700 12.495100 142.493200 -12.393600 -53.264800 5.290400 0.267700 3.328500 9.194800 13.158600 -8.511400 -88.610600 -24.577400 -19.490100 103.493500 -0.398100 1.472500 -11.497000 -0.028800 -1.095100 3.010500 -1.389400 1.131500 12.770700 2.547900 1.044900 -3.708800 -2.500300 0.121100 35.406000 -1.710000 0.873000 13.376800 -61.648900 -5.990900 38.196100 10.778600 -17.948100 -1.707100 0.000000 0.000000 -24.618500 -7.125000 0.000000 0.000000 91.862900 -7.614400 3.911800 -4.712900 8.099400 -0.333900 0.000000 0.000000 -14.794300 7.125000 0.000000 0.000000 
